 <svg version="1.0" xmlns="http://www.w3.org/2000/svg" width="700.000000pt" height="700.000000pt" viewBox="0 0 700.000000 700.000000" preserveAspectRatio="xMidYMid meet">
<g transform="translate(0.000000,700.000000) scale(0.100000,-0.100000)" fill="#000000" stroke="none">
<path d="M2744 6141 c-17 -10 -40 -31 -53 -47 -54 -70 -101 -139 -101 -148 0
-5 -14 -27 -30 -50 -45 -61 -101 -148 -110 -171 -4 -11 -22 -37 -39 -59 -17
-21 -31 -44 -31 -50 0 -6 -16 -31 -35 -55 -19 -24 -35 -49 -35 -55 0 -6 -13
-27 -29 -46 -15 -19 -36 -51 -46 -70 -10 -19 -26 -46 -37 -60 -36 -48 -98
-145 -98 -155 0 -5 -16 -30 -35 -54 -19 -24 -35 -49 -35 -55 0 -6 -16 -31 -35
-55 -19 -24 -35 -49 -35 -55 0 -6 -16 -31 -35 -55 -19 -24 -35 -49 -35 -55 0
-6 -16 -31 -35 -55 -19 -24 -35 -49 -35 -56 0 -24 -37 -45 -78 -45 -28 0 -63
11 -108 35 -87 46 -122 46 -175 -2 -23 -21 -50 -58 -61 -83 -11 -25 -26 -52
-33 -60 -7 -8 -23 -40 -35 -72 -11 -31 -27 -61 -35 -68 -8 -6 -21 -33 -30 -60
-9 -27 -25 -60 -35 -73 -11 -13 -29 -49 -40 -80 -11 -30 -27 -60 -35 -67 -8
-6 -21 -33 -30 -60 -9 -27 -25 -60 -36 -74 -11 -13 -26 -43 -34 -66 -8 -23
-24 -54 -35 -70 -11 -16 -27 -48 -36 -72 -8 -24 -25 -59 -38 -78 -12 -19 -27
-48 -33 -65 -6 -16 -24 -52 -42 -79 -17 -28 -31 -57 -31 -67 0 -9 -12 -33 -26
-54 -14 -21 -34 -62 -45 -91 -11 -28 -26 -57 -34 -64 -8 -6 -21 -33 -30 -60
-9 -27 -25 -60 -35 -73 -10 -13 -27 -46 -38 -73 -10 -27 -31 -67 -45 -88 -15
-21 -27 -47 -27 -56 0 -9 -12 -35 -26 -56 -15 -21 -33 -57 -41 -79 -7 -22 -25
-57 -39 -78 -49 -75 -41 -141 27 -201 43 -40 81 -46 128 -22 33 18 91 81 91
100 0 7 12 30 26 51 14 21 34 62 45 91 11 28 26 57 34 64 8 6 21 33 30 59 8
26 27 63 40 81 14 18 30 49 36 69 7 20 20 48 31 63 10 15 25 45 33 68 8 23 23
54 34 69 11 15 29 51 40 80 11 29 27 61 35 70 8 9 23 39 33 66 11 28 32 68 46
89 15 21 27 47 27 56 0 9 12 34 26 55 14 21 34 62 45 91 11 28 26 57 34 64 8
6 21 33 30 60 9 27 25 60 35 73 11 13 29 49 40 80 11 30 27 60 35 67 8 6 19
28 26 48 6 20 25 58 41 84 16 26 34 64 40 84 12 45 61 94 94 94 50 0 101 -64
174 -220 11 -25 28 -56 36 -70 8 -14 24 -45 35 -70 11 -25 27 -58 36 -75 9
-16 25 -48 36 -70 55 -111 142 -151 215 -99 24 16 182 199 247 284 40 52 66
86 159 200 66 81 108 81 161 2 14 -20 45 -64 70 -97 24 -33 52 -71 61 -85 10
-14 28 -36 40 -50 22 -25 39 -47 109 -145 38 -54 65 -90 135 -180 25 -31 56
-74 70 -95 34 -51 63 -88 143 -180 77 -91 121 -113 176 -90 34 14 101 82 101
103 0 7 16 37 35 67 19 30 35 62 35 71 0 9 12 33 26 54 14 21 34 62 45 91 12
30 34 65 52 80 29 24 35 26 92 19 112 -14 107 -15 133 40 13 28 32 59 42 70
60 65 13 133 -113 164 -27 6 -70 23 -96 37 -27 13 -71 27 -98 31 -48 5 -52 4
-93 -33 -24 -21 -51 -57 -60 -79 -9 -22 -29 -58 -44 -79 -14 -21 -26 -46 -26
-55 0 -9 -15 -41 -34 -71 -62 -100 -73 -105 -114 -47 -12 17 -42 59 -67 92
-24 33 -56 76 -69 97 -14 20 -30 39 -36 43 -6 4 -22 23 -36 43 -13 21 -44 64
-69 97 -24 33 -56 76 -69 97 -14 20 -30 39 -36 43 -6 4 -22 23 -36 43 -13 21
-44 64 -69 97 -24 33 -52 71 -62 85 -9 14 -45 57 -80 97 -98 110 -154 119
-235 35 -47 -50 -148 -169 -210 -249 -158 -203 -192 -243 -210 -243 -10 0 -25
12 -34 28 -10 15 -28 43 -40 62 -13 19 -33 63 -46 98 -22 62 -22 63 -4 116 10
29 34 73 52 96 19 24 34 48 34 54 0 6 16 31 35 55 19 24 35 49 35 55 0 6 16
31 35 55 19 24 35 49 35 55 0 6 16 31 35 55 19 24 35 49 35 55 0 6 16 31 35
55 19 24 35 48 35 54 0 5 14 28 30 51 51 69 110 160 110 171 0 6 15 29 33 52
17 23 50 72 72 108 22 36 50 80 62 98 12 17 33 53 47 78 26 48 71 77 101 65 9
-3 23 -20 33 -37 9 -17 31 -49 49 -70 17 -22 35 -48 38 -59 4 -11 10 -20 15
-20 4 0 22 -21 39 -47 48 -74 77 -115 104 -148 13 -16 31 -43 40 -60 8 -16 27
-41 41 -54 14 -14 26 -29 26 -35 0 -6 18 -33 40 -60 22 -26 40 -52 40 -56 0
-5 12 -23 28 -41 26 -32 27 -37 32 -180 l5 -148 38 -39 c22 -23 56 -45 80 -52
23 -7 60 -23 82 -35 22 -13 62 -29 90 -36 27 -7 74 -25 103 -41 30 -15 61 -28
71 -28 9 0 47 -16 85 -35 39 -19 79 -35 91 -35 31 0 112 -55 128 -87 9 -15 27
-39 42 -53 15 -14 31 -35 36 -47 5 -13 15 -23 23 -23 15 0 38 32 34 47 -4 14
14 57 37 88 35 48 48 91 42 141 -4 37 -13 54 -48 90 -28 28 -58 48 -84 55 -22
6 -58 21 -80 34 -22 12 -67 30 -99 39 -32 10 -69 24 -80 32 -12 7 -48 23 -80
34 -32 11 -72 28 -90 39 -17 11 -48 23 -70 27 -66 12 -76 30 -76 142 0 100 -1
103 -55 192 -11 18 -35 50 -52 72 -18 22 -33 43 -33 47 0 4 -10 18 -22 31 -29
30 -78 100 -119 168 -17 28 -34 52 -38 52 -4 0 -15 15 -25 33 -11 17 -28 42
-40 55 -11 12 -32 42 -46 67 -14 24 -53 81 -87 127 -34 45 -75 100 -90 121
-170 230 -208 257 -289 208z"></path>
<path d="M5148 6010 c-21 -5 -55 -20 -75 -33 -21 -13 -47 -27 -58 -31 -22 -7
-84 -73 -168 -176 -49 -60 -58 -66 -126 -87 -90 -29 -138 -73 -195 -183 -38
-72 -39 -79 -40 -175 -1 -97 0 -102 38 -175 49 -95 102 -150 196 -203 l75 -42
745 0 745 0 44 33 c24 17 49 32 56 32 25 0 107 77 148 140 41 62 42 67 42 145
0 77 -2 84 -42 150 -22 39 -52 79 -65 91 -29 27 -154 92 -190 99 -18 3 -37 19
-52 43 -58 88 -106 139 -176 186 l-74 51 -86 0 c-80 0 -89 -2 -134 -32 -76
-50 -103 -46 -177 28 -34 34 -82 70 -108 81 -25 12 -58 29 -74 40 -32 23 -186
34 -249 18z m175 -284 c39 -17 112 -91 126 -129 6 -16 11 -57 11 -93 0 -74 15
-109 60 -148 25 -20 42 -26 80 -26 41 0 54 5 83 33 43 40 57 66 57 108 0 25
11 43 49 80 43 43 53 49 91 49 38 0 48 -6 91 -49 41 -40 49 -54 49 -85 0 -46
20 -86 60 -120 27 -22 41 -26 93 -26 86 0 111 -15 115 -67 6 -77 48 -73 -736
-73 l-693 0 -47 44 c-45 43 -47 47 -47 100 0 44 5 59 25 81 33 36 72 55 110
55 63 0 119 47 145 120 18 51 85 125 130 146 39 17 107 18 148 0z"></path>
<path d="M4584 4189 c-32 -9 -104 -79 -104 -101 0 -6 -11 -26 -25 -43 -13 -18
-36 -57 -50 -86 -14 -30 -43 -85 -65 -124 -21 -38 -52 -97 -70 -130 -17 -33
-48 -89 -70 -125 -21 -36 -53 -92 -70 -125 -32 -63 -82 -155 -143 -265 -20
-36 -48 -90 -62 -120 -15 -30 -35 -64 -45 -75 -9 -11 -23 -37 -30 -58 -6 -21
-22 -50 -34 -65 -13 -15 -29 -44 -35 -64 -25 -76 -95 -99 -163 -53 -20 13 -59
33 -88 44 -29 11 -60 27 -69 35 -9 9 -37 23 -61 31 -25 9 -61 27 -81 41 -21
14 -57 27 -85 30 -47 6 -51 4 -96 -35 -28 -25 -52 -57 -59 -79 -7 -20 -22 -53
-34 -72 -13 -19 -30 -58 -39 -87 -10 -28 -24 -57 -32 -64 -8 -6 -21 -35 -29
-64 -9 -28 -26 -67 -40 -85 -13 -18 -27 -47 -31 -64 -3 -17 -19 -56 -34 -86
-16 -30 -46 -93 -68 -140 -22 -47 -55 -119 -75 -160 -19 -41 -40 -92 -47 -112
-6 -20 -17 -42 -25 -48 -8 -6 -22 -35 -31 -63 -9 -29 -27 -68 -40 -87 -12 -19
-27 -53 -33 -75 -6 -22 -22 -56 -35 -74 -14 -18 -28 -48 -32 -65 -3 -17 -19
-53 -34 -81 -15 -27 -33 -67 -40 -89 -7 -21 -23 -55 -36 -74 -14 -20 -27 -47
-30 -61 -4 -14 -20 -51 -36 -81 -22 -40 -31 -69 -32 -108 -1 -51 1 -55 46 -98
51 -48 76 -54 131 -30 44 19 83 63 101 114 9 24 24 55 35 68 11 14 27 49 35
78 9 30 22 59 30 65 8 7 24 41 36 76 12 35 27 69 35 75 8 6 23 40 35 75 12 35
28 69 36 75 7 7 20 34 28 61 8 26 28 74 44 106 49 95 100 206 108 233 4 14 17
41 30 60 13 19 24 39 24 43 0 5 7 24 16 43 13 26 22 34 43 34 33 -1 96 -29
143 -66 20 -16 49 -37 65 -46 15 -10 53 -34 84 -55 31 -21 72 -48 90 -60 19
-12 48 -31 64 -43 17 -11 52 -35 79 -53 27 -18 66 -43 86 -57 154 -104 195
-128 226 -134 17 -4 44 -2 60 4 31 12 104 77 104 94 0 5 11 23 24 40 13 17 32
49 44 72 11 22 28 47 38 55 9 7 25 32 36 54 17 37 28 55 85 138 12 18 34 55
49 82 15 28 37 63 50 78 13 16 24 33 24 38 0 5 16 32 35 60 19 28 35 55 35 59
0 4 16 27 35 51 19 24 35 49 35 55 0 18 91 124 106 124 8 0 84 -67 169 -149
164 -157 186 -171 252 -152 18 5 47 21 66 35 19 14 38 26 43 26 5 0 29 16 53
35 24 19 47 35 50 35 4 0 30 18 60 40 46 35 60 40 106 40 44 0 59 -5 86 -27
36 -31 108 -83 153 -110 15 -10 46 -33 68 -50 22 -18 44 -33 48 -33 4 0 26
-15 48 -32 22 -18 53 -41 68 -50 16 -10 49 -33 74 -53 43 -33 101 -75 180
-129 19 -14 49 -36 65 -49 17 -13 44 -32 60 -41 17 -9 45 -28 64 -41 23 -17
47 -25 75 -25 37 0 48 6 90 49 47 48 49 51 44 96 -4 30 -17 62 -37 90 -17 24
-31 48 -31 53 0 6 -12 25 -27 43 -16 18 -37 47 -48 64 -31 50 -82 127 -105
160 -12 17 -31 45 -43 64 -12 18 -39 59 -60 90 -21 31 -45 69 -55 85 -9 16
-29 43 -43 60 -15 17 -36 49 -48 71 -12 22 -33 56 -46 75 -57 82 -88 127 -108
159 -12 19 -33 51 -47 71 -14 20 -39 59 -57 86 -97 149 -144 201 -192 214 -44
12 -96 -1 -146 -34 -46 -32 -111 -41 -141 -21 -13 8 -24 20 -24 25 0 6 -15 27
-33 47 -18 21 -52 67 -75 103 -22 36 -52 79 -66 95 -32 38 -71 92 -93 129 -10
16 -30 43 -44 60 -14 17 -34 45 -43 63 -9 18 -22 36 -30 40 -8 4 -27 29 -42
54 -111 178 -215 292 -266 288 -7 0 -27 -5 -44 -10z m104 -460 c9 -17 31 -49
49 -70 17 -22 34 -48 38 -58 3 -11 12 -22 20 -25 8 -3 21 -19 30 -36 16 -30
57 -90 107 -154 13 -16 32 -44 43 -62 11 -18 45 -66 76 -107 32 -41 64 -88 73
-106 9 -17 20 -31 24 -31 4 0 16 -15 26 -32 39 -68 116 -114 173 -103 18 3 55
19 81 35 65 41 127 44 156 7 48 -59 86 -115 86 -125 0 -6 13 -26 29 -44 15
-18 36 -46 45 -63 9 -16 28 -45 41 -64 48 -66 20 -113 -39 -65 -17 14 -47 36
-66 49 -19 13 -69 47 -110 74 -101 69 -125 67 -251 -17 -30 -20 -71 -47 -90
-59 -19 -12 -52 -35 -74 -51 -49 -37 -82 -45 -117 -29 -15 6 -97 81 -183 165
-161 159 -204 188 -257 176 -31 -6 -118 -78 -118 -96 0 -6 -16 -32 -35 -58
-19 -26 -35 -52 -35 -57 0 -6 -10 -23 -22 -38 -13 -16 -34 -47 -48 -70 -48
-80 -65 -107 -87 -139 -12 -17 -34 -53 -49 -81 -15 -27 -37 -64 -50 -81 -13
-17 -24 -35 -24 -41 0 -6 -10 -23 -22 -38 -13 -16 -34 -47 -48 -70 -48 -80
-65 -107 -87 -139 -12 -17 -34 -52 -48 -78 -23 -43 -29 -48 -59 -48 -22 0 -45
9 -63 24 -15 13 -42 30 -58 39 -17 8 -39 24 -49 36 -11 12 -25 21 -32 21 -7 0
-33 15 -57 34 -25 19 -58 42 -74 51 -15 9 -55 36 -88 60 -33 25 -77 54 -98 65
-74 40 -157 111 -157 133 0 48 46 162 78 194 40 40 67 41 118 7 21 -15 56 -33
77 -40 21 -7 51 -23 67 -34 16 -11 47 -27 68 -34 22 -8 57 -26 79 -40 98 -64
185 -33 251 87 15 27 44 78 64 115 20 37 49 92 63 122 15 30 35 64 44 75 10
11 23 35 29 52 6 18 22 48 35 65 13 18 30 49 37 68 8 19 24 47 36 62 12 15 30
50 39 77 9 27 22 55 30 61 8 7 26 35 40 63 15 29 44 84 65 122 21 39 51 95 65
125 15 30 35 64 45 75 9 11 23 37 30 59 15 47 75 116 102 116 11 0 26 -13 36
-31z"></path>
</g>
</svg>